<?xml version="1.0" encoding="UTF-8" standalone="no"?>
<svg
   width="512.7572"
   height="318.87781"
   viewBox="0 0 512.7572 318.87781"
   version="1.1"
   preserveAspectRatio="xMidYMid"
   id="svg18"
   xmlns="http://www.w3.org/2000/svg"
   xmlns:svg="http://www.w3.org/2000/svg">
  <defs
     id="defs22" />
  <polygon
     fill="#8cd636"
     points="255.87231,127.72302 195.30859,188.28675 135.01978,127.99794 195.5835,67.434216 "
     id="polygon10"
     transform="rotate(45,385.53609,295.78743)" />
  <polygon
     fill="#596277"
     points="120.97797,128 0,7.0220292 0,248.97955 "
     id="polygon6"
     transform="translate(185.64368,59.152504)" />
  <polygon
     fill="#5fb4cb"
     points="142.19292,0 256,113.80628 256,0 "
     id="polygon8"
     transform="rotate(90,124.66937,187.54719)" />
  <polygon
     fill="#5fb4cb"
     points="248.97797,256 128,135.02203 7.0228211,256 "
     id="polygon2"
     transform="rotate(45,382.96165,289.935)" />
  <g
     id="g403"
     transform="translate(19.210946,-3.1301554)">
    <polygon
       fill="#eea400"
       points="72.677369,65.656132 128,120.97876 183.32184,65.656132 "
       id="polygon14"
       transform="rotate(45,307.28386,442.55002)" />
    <polygon
       fill="#eea400"
       points="256,141.64339 202.33231,195.31107 256,248.97955 "
       id="polygon4"
       transform="rotate(135,387.74115,159.53328)" />
  </g>
  <polygon
     fill="#8cd636"
     points="62.746123,55.725677 183.87534,55.725677 128.14966,0 7.0212374,0 "
     id="polygon12"
     transform="translate(-7.0212374,0.1098731)" />
</svg>
